<svg id="Layer_1" xmlns="http://www.w3.org/2000/svg" xmlns:xlink="http://www.w3.org/1999/xlink" viewBox="0 0 224.2 229"><style>.st0{fill:#4a87c4}.st0,.st1,.st2{fill-rule:evenodd;clip-rule:evenodd}.st1{clip-path:url(#SVGID_2_);fill:#f7bb55}.st2{fill:#606062}.st2,.st3,.st4{clip-path:url(#SVGID_2_)}.st3{fill-rule:evenodd;clip-rule:evenodd;fill:#fefefe}.st4{fill:#4d87c3}.st4,.st5,.st6,.st7,.st8{fill-rule:evenodd;clip-rule:evenodd}.st5{clip-path:url(#SVGID_2_);fill:#a9abae}.st6,.st7,.st8{fill:#fefefe}.st7,.st8{fill:#606062}.st8{fill:#81b7aa}.st9{clip-path:url(#SVGID_4_);fill:#221f1f}.st10,.st11,.st9{fill-rule:evenodd;clip-rule:evenodd}.st10{clip-path:url(#SVGID_4_);fill:#fefefe}.st11{fill:#3f3f41}.st11,.st12,.st13{clip-path:url(#SVGID_4_)}.st12{fill-rule:evenodd;clip-rule:evenodd;fill:#bbbdbf}.st13{fill:#e5e6e7}.st13,.st14,.st15,.st16,.st17{fill-rule:evenodd;clip-rule:evenodd}.st14{clip-path:url(#SVGID_4_);fill:#d1d2d4}.st15,.st16,.st17{fill:#221f1f}.st16,.st17{fill:#3f3f41}.st17{fill:#d1d2d4}</style><path class="st0" d="M729.3-141.6c58.1 0 105.2 47.1 105.2 105.2S787.4 68.8 729.3 68.8 624 21.7 624-36.4s47.2-105.2 105.3-105.2"/><defs><path id="SVGID_1_" d="M729.3-141.6c58.1 0 105.2 47.1 105.2 105.2S787.4 68.8 729.3 68.8 624 21.7 624-36.4s47.2-105.2 105.3-105.2"/></defs><clipPath id="SVGID_2_"><use xlink:href="#SVGID_1_" overflow="visible"/></clipPath><path class="st1" d="M723.9000000000001-99.8h-14.6l-.1 19 .3 1.9 14.3-.1.1-20.8zm0 27.8h-14.6v19l.3 1.9 14.4-.1-.1-20.8zm9 82.7l-.4 4.1 2.4-.1c.8-.3 1.9-.7 3.3-1.4 1.3.6 2.5 1.1 3.3 1.4l2.4.1 1.5.1.1 1.7 7.1 2.4.1-3.9 6.6-.2L759 6l-6.6-.1v-20.7l14.6-.1.1 8.9c1-1.9 5.4-5 7.2-7.5v-94.2h-15.2v-.1H702v94.2c1.8 2.5 6.2 5.6 7.2 7.5l.1-8.9 14.6.1.1 20.1c1 1.1 4.9 3.4 8.9 5.5zm2.7-25.5h9.9v1.4l-.2 19c-.3.1-.5.3-.9.4H743c-1.2 0-3 .2-4.8.3-1.8-.1-3.6-.3-4.8-.3v.2c-1-.1-1.8-.3-2.4-.7l-.1-20.4 4.7.1zm9-85c.5.5.7-.1.8.7l-.2 19.7c-.3.2-.4.3-.6.4h-10.8c-2 0-1.7.4-2.9-.5l-.1-15.5c-.1-6 0-4 .8-4.8h13zm12.6 0h9.8l.1 19-.3 1.9-14.2-.1h-.2v-20.8h4.8zm0 27.8h9.8v19l-.3 1.9-13.9-.1h-.5V-72h4.9zm.1 28.2h9.7v20.9h-8l-6.6-.1v-20.7l4.9-.1zm-12.1 0h-14.1V-23c1.9-.5 4.8-.5 7.1-.2 2.3-.3 5.2-.4 7.1.2v-20.8zm-14.3-7.8h14.3v.1h.1l.2-19.5v-.9l-10.9-.1-3.8.1.1 20.3zm-7 7.8h-14.6v20.9h12.6l2-.2v-20.7z"/><path class="st2" d="M646.7-33.4h162.1c2 0 3.6 1.6 3.6 3.6v96.4c0 2-1.6 3.6-3.6 3.6H646.7c-2 0-3.6-1.6-3.6-3.6v-96.4c0-2 1.7-3.6 3.6-3.6"/><path class="st3" d="M653.4-16.2h149.7c1.6 0 2.9 1.3 2.9 2.9v74.4c0 1.6-1.3 2.9-2.9 2.9H653.4c-1.6 0-2.9-1.3-2.9-2.9v-74.4c0-1.6 1.3-2.9 2.9-2.9"/><path class="st4" d="M679.3-1.1c6.5 0 11.8 5.3 11.8 11.8 0 6.5-5.3 11.8-11.8 11.8-6.5 0-11.8-5.3-11.8-11.8.1-6.5 5.3-11.8 11.8-11.8M661.2 48.9h36.2V37.7c0-6.2-5-11.2-11.2-11.2h-13.8c-6.2 0-11.2 5-11.2 11.2v11.2z"/><path class="st5" d="M714.9-4.8h77.5c1.6 0 3 1.3 3 3 0 1.6-1.3 3-3 3h-77.5c-1.6 0-3-1.3-3-3 .1-1.6 1.4-3 3-3M714.9 11.2h38.8c1.6 0 3 1.3 3 3 0 1.6-1.3 3-3 3h-38.8c-1.6 0-3-1.3-3-3 .1-1.7 1.4-3 3-3M714.9 27.1h77.5c1.6 0 3 1.3 3 3 0 1.6-1.3 3-3 3h-77.5c-1.6 0-3-1.3-3-3 .1-1.6 1.4-3 3-3M714.9 43.1h65c1.6 0 3 1.3 3 3 0 1.6-1.3 3-3 3h-65c-1.6 0-3-1.3-3-3 .1-1.7 1.4-3 3-3"/><path class="st6" d="M709.9-28.8h38.7v8.5h-38.7z"/><path class="st7" d="M722.1-41.9h14.4v18.4h-14.4z"/><path class="st6" d="M775.9-86.9h20.4c3.7-.1 5.5-1.9 6.2-5.2l-.2-2.6c-.5-.9-1-1.7-1.3-2.3-1.1-.8-2-1.5-4-1.7-1.2-2.9-3.4-4.4-7.2-3.3l-1.4-1.4-.3-.1-.2-.2c-6.5-4.2-13.5-.2-14.5 6.5-.3.3 0 .1-.6.3-.9.4-1.7.4-2.8 1.9-.8 1.2-1.2 2.6-.8 4.2.7 3.9 4.1 4 6.7 3.9M650-60.9h35.2c6.4-.2 9.5-3.3 10.7-9l-.4-4.5c-.8-1.5-1.7-2.9-2.3-4-1.9-1.4-3.4-2.6-6.8-2.9-2-4.9-5.9-7.5-12.5-5.7l-2.4-2.5-.5-.2-.3-.3c-11.3-7.2-23.3-.4-25.1 11.3-.5.4 0 .2-1 .6-1.6.7-3 .6-4.9 3.3-1.5 2-2.1 4.5-1.5 7.3 1.5 6.5 7.3 6.7 11.8 6.6"/><g><path class="st8" d="M109.3 8c60.4 0 109.4 49 109.4 109.3 0 60.4-49 109.4-109.4 109.4C49 226.7 0 177.7 0 117.3 0 57 49 8 109.3 8z"/><defs><path id="SVGID_3_" d="M109.3 8c60.4 0 109.4 49 109.4 109.3 0 60.4-49 109.4-109.4 109.4C49 226.7 0 177.7 0 117.3 0 57 49 8 109.3 8z"/></defs><clipPath id="SVGID_4_"><use xlink:href="#SVGID_3_" overflow="visible"/></clipPath><path class="st9" d="M37.3 72.5h144.1v176H37.3z"/><path class="st10" d="M42.5 67.4h132.3v176H60.9l-18.4-18.2z"/><path class="st11" d="M74.8 62.1h22.7c-.1-.7-.2-1.3-.2-2 0-6.2 5-11.3 11.3-11.3 6.2 0 11.2 5 11.2 11.3 0 .7-.1 1.4-.2 2h22.7v10.1H74.8V62.1zm39.7 0l.1-.1V61.2 60.9v-.1-.1-.1c0-3.4-2.8-6.2-6.2-6.2s-6.2 2.8-6.2 6.2V62.1c.9 2.4 3.1 4.2 5.9 4.2 3.2 0 5.6-1.7 6.4-4.2z"/><path class="st12" d="M42.4 225.3h18.9v18.5z"/><path class="st13" d="M61.3 225.3l24 18.1-24 .4z"/><path class="st14" d="M59.3 90.3h96.1c1.8 0 3.3 1.5 3.3 3.3 0 1.8-1.5 3.3-3.3 3.3H59.3c-1.8 0-3.3-1.5-3.3-3.3 0-1.8 1.5-3.3 3.3-3.3zM59.3 108.5h96.1c1.8 0 3.3 1.5 3.3 3.3 0 1.8-1.5 3.3-3.3 3.3H59.3c-1.8 0-3.3-1.5-3.3-3.3 0-1.9 1.5-3.3 3.3-3.3zM59.3 126.6h96.1c1.8 0 3.3 1.5 3.3 3.3 0 1.8-1.5 3.3-3.3 3.3H59.3c-1.8 0-3.3-1.5-3.3-3.3 0-1.8 1.5-3.3 3.3-3.3zM59.3 144.8h96.1c1.8 0 3.3 1.5 3.3 3.3 0 1.8-1.5 3.3-3.3 3.3H59.3c-1.8 0-3.3-1.5-3.3-3.3 0-1.9 1.5-3.3 3.3-3.3zM59.3 162.9h96.1c1.8 0 3.3 1.5 3.3 3.3 0 1.8-1.5 3.3-3.3 3.3H59.3c-1.8 0-3.3-1.5-3.3-3.3 0-1.8 1.5-3.3 3.3-3.3zM59.3 181.1h50.6c1.8 0 3.3 1.5 3.3 3.3 0 1.8-1.5 3.3-3.3 3.3H59.3c-1.8 0-3.3-1.5-3.3-3.3 0-1.8 1.5-3.3 3.3-3.3z"/><path class="st12" d="M124.9 198.3h33.7v15.5h-33.7z"/><path class="st14" d="M126.5 219.9H157c.9 0 1.6.7 1.6 1.6 0 .9-.7 1.6-1.6 1.6h-30.5c-.9 0-1.6-.8-1.6-1.6 0-.9.7-1.6 1.6-1.6zM126.5 226.7H157c.9 0 1.6.7 1.6 1.6 0 .9-.7 1.6-1.6 1.6h-30.5c-.9 0-1.6-.7-1.6-1.6 0-.9.7-1.6 1.6-1.6z"/><path class="st15" d="M37.2 54.1h144.4v35.2H37.2z"/><path class="st6" d="M42.3 48.9H175v40.4l-7.1 9.1-4.4-8.6-109.7-.5-5.6 15-5.9-15z"/><path class="st16" d="M74.7 43.6h22.8c-.1-.7-.2-1.4-.2-2 0-6.2 5-11.3 11.3-11.3 6.2 0 11.3 5 11.3 11.3 0 .7-.1 1.4-.2 2h22.8v10.1H74.7V43.6zm39.8 0V42.5 42v-.1-.1-.1c0-3.5-2.8-6.2-6.2-6.2-3.5 0-6.2 2.8-6.2 6.2V43.4c.9 2.4 3.2 4.2 5.9 4.2 3.3.2 5.7-1.6 6.5-4z"/><path class="st17" d="M59.2 71.8h96.3c1.8 0 3.3 1.5 3.3 3.3 0 1.8-1.5 3.3-3.3 3.3H59.2c-1.8 0-3.3-1.5-3.3-3.3 0-1.8 1.4-3.3 3.3-3.3z"/></g></svg>