<svg id="Layer_1" xmlns="http://www.w3.org/2000/svg" xmlns:xlink="http://www.w3.org/1999/xlink" viewBox="0 0 224.2 229"><style>.st0{fill:#4a87c4}.st0,.st1,.st2{fill-rule:evenodd;clip-rule:evenodd}.st1{clip-path:url(#SVGID_2_);fill:#f7bb55}.st2{fill:#606062}.st2,.st3,.st4{clip-path:url(#SVGID_2_)}.st3{fill-rule:evenodd;clip-rule:evenodd;fill:#fefefe}.st4{fill:#4d87c3}.st4,.st5,.st6,.st7,.st8,.st9{fill-rule:evenodd;clip-rule:evenodd}.st5{clip-path:url(#SVGID_2_);fill:#a9abae}.st6,.st7,.st8,.st9{fill:#fefefe}.st7,.st8,.st9{fill:#606062}.st8,.st9{fill:#8cc1e9}.st9{fill:#df7d1f}.st10,.st11,.st12,.st13,.st14,.st15{fill-rule:evenodd;clip-rule:evenodd;fill:#57585a}.st11,.st12,.st13,.st14,.st15{fill:#221f1f}.st12,.st13,.st14,.st15{fill:#ebf0f1}.st13,.st14,.st15{fill:#bdc2c6}.st14,.st15{fill:#979c9f}.st15{fill:#cd5200}</style><path class="st0" d="M729.3-141.6c58.1 0 105.2 47.1 105.2 105.2S787.4 68.8 729.3 68.8 624 21.7 624-36.4s47.2-105.2 105.3-105.2"/><defs><path id="SVGID_1_" d="M729.3-141.6c58.1 0 105.2 47.1 105.2 105.2S787.4 68.8 729.3 68.8 624 21.7 624-36.4s47.2-105.2 105.3-105.2"/></defs><clipPath id="SVGID_2_"><use xlink:href="#SVGID_1_" overflow="visible"/></clipPath><path class="st1" d="M723.9000000000001-99.8h-14.6l-.1 19 .3 1.9 14.3-.1.1-20.8zm0 27.8h-14.6v19l.3 1.9 14.4-.1-.1-20.8zm9 82.7l-.4 4.1 2.4-.1c.8-.3 1.9-.7 3.3-1.4 1.3.6 2.5 1.1 3.3 1.4l2.4.1 1.5.1.1 1.7 7.1 2.4.1-3.9 6.6-.2L759 6l-6.6-.1v-20.7l14.6-.1.1 8.9c1-1.9 5.4-5 7.2-7.5v-94.2h-15.2v-.1H702v94.2c1.8 2.5 6.2 5.6 7.2 7.5l.1-8.9 14.6.1.1 20.1c1 1.1 4.9 3.4 8.9 5.5zm2.7-25.5h9.9v1.4l-.2 19c-.3.1-.5.3-.9.4H743c-1.2 0-3 .2-4.8.3-1.8-.1-3.6-.3-4.8-.3v.2c-1-.1-1.8-.3-2.4-.7l-.1-20.4 4.7.1zm9-85c.5.5.7-.1.8.7l-.2 19.7c-.3.2-.4.3-.6.4h-10.8c-2 0-1.7.4-2.9-.5l-.1-15.5c-.1-6 0-4 .8-4.8h13zm12.6 0h9.8l.1 19-.3 1.9-14.2-.1h-.2v-20.8h4.8zm0 27.8h9.8v19l-.3 1.9-13.9-.1h-.5V-72h4.9zm.1 28.2h9.7v20.9h-8l-6.6-.1v-20.7l4.9-.1zm-12.1 0h-14.1V-23c1.9-.5 4.8-.5 7.1-.2 2.3-.3 5.2-.4 7.1.2v-20.8zm-14.3-7.8h14.3v.1h.1l.2-19.5v-.9l-10.9-.1-3.8.1.1 20.3zm-7 7.8h-14.6v20.9h12.6l2-.2v-20.7z"/><path class="st2" d="M646.7-33.4h162.1c2 0 3.6 1.6 3.6 3.6v96.4c0 2-1.6 3.6-3.6 3.6H646.7c-2 0-3.6-1.6-3.6-3.6v-96.4c0-2 1.7-3.6 3.6-3.6"/><path class="st3" d="M653.4-16.2h149.7c1.6 0 2.9 1.3 2.9 2.9v74.4c0 1.6-1.3 2.9-2.9 2.9H653.4c-1.6 0-2.9-1.3-2.9-2.9v-74.4c0-1.6 1.3-2.9 2.9-2.9"/><path class="st4" d="M679.3-1.1c6.5 0 11.8 5.3 11.8 11.8 0 6.5-5.3 11.8-11.8 11.8-6.5 0-11.8-5.3-11.8-11.8.1-6.5 5.3-11.8 11.8-11.8M661.2 48.9h36.2V37.7c0-6.2-5-11.2-11.2-11.2h-13.8c-6.2 0-11.2 5-11.2 11.2v11.2z"/><path class="st5" d="M714.9-4.8h77.5c1.6 0 3 1.3 3 3 0 1.6-1.3 3-3 3h-77.5c-1.6 0-3-1.3-3-3 .1-1.6 1.4-3 3-3M714.9 11.2h38.8c1.6 0 3 1.3 3 3 0 1.6-1.3 3-3 3h-38.8c-1.6 0-3-1.3-3-3 .1-1.7 1.4-3 3-3M714.9 27.1h77.5c1.6 0 3 1.3 3 3 0 1.6-1.3 3-3 3h-77.5c-1.6 0-3-1.3-3-3 .1-1.6 1.4-3 3-3M714.9 43.1h65c1.6 0 3 1.3 3 3 0 1.6-1.3 3-3 3h-65c-1.6 0-3-1.3-3-3 .1-1.7 1.4-3 3-3"/><path class="st6" d="M709.9-28.8h38.7v8.5h-38.7z"/><path class="st7" d="M722.1-41.9h14.4v18.4h-14.4z"/><path class="st6" d="M775.9-86.9h20.4c3.7-.1 5.5-1.9 6.2-5.2l-.2-2.6c-.5-.9-1-1.7-1.3-2.3-1.1-.8-2-1.5-4-1.7-1.2-2.9-3.4-4.4-7.2-3.3l-1.4-1.4-.3-.1-.2-.2c-6.5-4.2-13.5-.2-14.5 6.5-.3.3 0 .1-.6.3-.9.4-1.7.4-2.8 1.9-.8 1.2-1.2 2.6-.8 4.2.7 3.9 4.1 4 6.7 3.9M650-60.9h35.2c6.4-.2 9.5-3.3 10.7-9l-.4-4.5c-.8-1.5-1.7-2.9-2.3-4-1.9-1.4-3.4-2.6-6.8-2.9-2-4.9-5.9-7.5-12.5-5.7l-2.4-2.5-.5-.2-.3-.3c-11.3-7.2-23.3-.4-25.1 11.3-.5.4 0 .2-1 .6-1.6.7-3 .6-4.9 3.3-1.5 2-2.1 4.5-1.5 7.3 1.5 6.5 7.3 6.7 11.8 6.6"/><g><path class="st8" d="M44.4 30.9l-.6-.3-.4-.4.4.4.6.3 3.2 3.3c8.7-2.4 13.8 1 16.5 7.5 4.5.4 6.5 2 9.1 3.8h69.1v54.6h25.8l25.5.1v87.9c1.2-.7.5-.2 1.5-1.1.3-.3.6-.7.8-1.1 5.3-7 7.1-8 12.3-17.3 13.7-24.2 18.8-54.8 10.9-82.1-8.1 2.3-28.5 1.1-38.3 1.1-7.4 0-11.9.1-14.1-5.7-2.1-6 2.2-10.7 7.1-11.6.8-7.3 4.9-11.9 10.7-13.8 7.5-2.5 14.6 1 17.6 5.1 2.6-.7 3.7-1 6.6-.3-1.7-3.4-3.9-6.8-6-9.6-2.3-3.2-4.4-5.5-6.7-8.4-5.3-6.6-17.6-16.6-25-21.1-10.4-6.3-20-10.4-32.4-13.2-29.8-7-60.7-.9-85.3 15.9-2.1 1.5-7.3 6-8.9 6z"/><path class="st9" d="M115.4 160.5h17.9V186h-17.9v-25.5zm-26.4 0h17.9V186H89v-25.5zm-26.4 0h17.9V186H62.6v-25.5zm52.8-35.3h17.9v25.4h-17.9v-25.4zm-26.4 0h17.9v25.4H89v-25.4zm-26.5 0h18v25.4H62.6l-.1-25.4zm52.9-34.4h17.9v25.5h-17.9V90.8zm-26.4 0h17.9v25.5H89V90.8zm-26.4 0h17.9l.1 25.5h-18V90.8zm52.8-33.9h17.9l.1 25.5h-17.9V56.9zm-26.4 0h17.9v25.5H89V56.9zm-12.8-6c4.7.9 8.6 5.4 9.6 10.1.6 2.9.1 6-1 8.3-1.4 3.2-2.8 3.5-4.3 5.5v7.6H62.6l-.1-5.3-8.8-.1v126.9c1.5 1.7 6.5 4.2 8.9 5.6v-12.7h17.9v20.4l8.5 2.4v-22.8h17.9v25.6c3.9.5 9.9 1 13.4-.1l-4.9-.1v-25.4h17.9l-.1 24.2 9-1.9v-5.6l6 .2-6-.2.1-7.9-.1-18.7.1-7.3V135.5l.1-6.2-.1-18.7-.1-10.3V45.7H73.1c.9 1.4 2 3.2 3.1 5.2z"/><path class="st8" d="M53.7 203.9V68.7H16c-2.1 6.2-4.6 11.1-6.4 18.1-5.4 20.5-4.5 43.1 2.3 62.7 5.1 14.6 10.4 23.2 19.7 34.5 1.2 1.4 1.3 2 2.8 3.4 3.9 3.5 8.1 8.6 12.4 11.6 2.3 1.5 4.3 3.8 6.9 4.9z"/><path class="st6" d="M16.1 68.7h46.5c8.5-.3 12.5-4.3 14.1-11.9l-.5-6c-1.1-2-2.2-3.8-3.1-5.3-2.5-1.8-4.5-3.5-9.1-3.8-2.7-6.5-7.8-10-16.5-7.5l-3.2-3.3-.6-.3-.4-.4c-15-9.5-30.9-.5-33.2 14.9-.7.6 0 .2-1.3.8-2.1.9-3.9.8-6.5 4.3C.4 52.8-.5 56.1.4 59.8c2 8.8 9.7 8.9 15.7 8.9z"/><path class="st10" d="M173.9 160.8H187v18.7h-11.3l-1.8-.1v-18.6zm0-25.3H187l.1 17.1-.3 1.7-12.9-.1v-18.7zm0-25H187l.1 17.1-.3 1.7-12.9-.1v-18.7zm-7 .1c.8.7.8-1.1.7 4.3l-.1 14c-1.1.8-.8.5-2.6.5l-.7 6.2 3.4.1-.1 18.3c-1.1.7-3.6.5-5.3.4-.6 8-1.8 6.9 5.2 6.6v18.7c-2.1-.6-5.7-.4-7.8.2l-.8 7.2h8.9l-.1 18.3c-2.1 1.3-8 .5-10.8.4l-.8 7.9 2.1-.1c3.3-1.1 13.9-6.7 15.7-8.6l.1-17.8 13.1-.1.1 8c.9-1.7 4.9-4.5 6.5-6.7v-87.9l-25.5-.1-1.2 10.2z"/><path class="st6" d="M219.1 86.4c2.7-2.2 6.3-5.8 4.7-11.7-1.3-5.1-4.3-6.2-9.2-7.7-2.1-3.4-1.8-4.2-5.9-5.8-2.9-.6-4-.4-6.6.3-3-4.1-10-7.7-17.6-5.1-5.8 2-9.9 6.6-10.7 13.8-4.9.9-9.2 5.7-7.1 11.6 2.1 5.9 6.6 5.7 14.1 5.7 9.8 0 30.3 1.2 38.3-1.1z"/><path class="st11" d="M142.3 110.5h6v18.6l-5.9.1-.1 6.2 6 .1v18.7l-5.9.1v6.6h5.9v18.6l-5.9.1-.1 7.3h6v18.6l-5.9.1-.1 7.9 6 .2.1 3.5 6.4-2.2.1-1.5 1.3-.1.8-7.9-2.1-.1-.2-18.7h4.3l.8-7.2c2.1-.5 5.7-.8 7.8-.2l-7.8.1-5.1-.1v-18.7h13c-7 .3-5.8 1.3-5.2-6.6h-7.6l-.2-18.7 9.7-.1.7-6.2h-10.2l-.2-18.7h12.4l1.1-10.4h-25.8l-.1 10.6z"/><path class="st12" d="M62.6 150.6h17.9v-25.4h-18zM62.6 116.3h18l-.1-25.5H62.6zM115.4 82.4h17.9V56.9h-17.9zM89 150.6h17.9v-25.4H89zM89 90.8h17.9v25.5H89zM115.4 90.8h17.9v25.5h-17.9zM89 56.9h17.9v25.5H89zM89 160.5h17.9v25.4H89zM62.6 160.5h17.9v25.4H62.6zM115.4 160.5h17.9v25.4h-17.9zM115.4 125.2h17.9v25.4h-17.9zM120.3 222.3c3.8.1 9.4-.4 13-1.3l.1-24.2h-17.9v25.4l4.8.1zM89 219.6c5.2 1.7 12.1 2.3 17.9 2.7v-25.6H89v22.9zM62.6 209.5c4.1 2.5 12.7 6.3 17.9 7.7v-20.4H62.6v12.7z"/><path class="st13" d="M173.9 179.5l1.8.1H187v-18.8h-13.1zM173.9 154.2h12.9l.2-1.7v-17h-13.1zM173.9 129.2h12.9l.2-1.6v-17.1h-13.1zM62.6 68.7v8.4c6.4.4 13.3.8 17.9-2.3l.1-17.9h-3.9c-1.6 7.5-5.6 11.6-14.1 11.8z"/><path class="st14" d="M164.9 129.3c1.8.1 1.5.3 2.6-.5l-2.5.1 1.9-18.4h-12.4l.2 18.7 10.2.1z"/><path class="st13" d="M167.6 205.2v-18.4h-8.8l-2 18.5zM173.8 204.8c2.9-1.1 11.1-8 13.3-10l-.1-8-13.1.1-.1 17.9z"/><path class="st14" d="M162.3 154.2c1.8.1 4.2.3 5.3-.4l-5.3.1 1.9-18.5-9.7.1.2 18.7h7.6z"/><path class="st13" d="M159.6 179.6l7.8-.1v-18.6l-5.9-.1z"/><path class="st14" d="M159.6 179.6l1.9-18.8-7 .1v18.6zM142.3 205.6l5.9-.1.1-18.6-6-.1zM142.3 154.2h5.9l.1-18.7h-6zM142.3 129.2h5.9l.1-18.7h-6zM142.3 179.6l6-.1v-18.6l-6-.1z"/><path class="st15" d="M76.7 56.9h3.9l-.1 17.9c1.4-2 2.8-2.3 4.3-5.5 1-2.3 1.6-5.4 1-8.3-1-4.6-4.9-9.2-9.6-10.1l.5 6z"/><path class="st12" d="M62.6 77.1l.1 5.3h17.9v-7.6c-4.7 3.1-11.6 2.7-18 2.3z"/><path class="st13" d="M167.6 153.8v-18.3h-3.4l-1.9 18.5z"/><path class="st15" d="M53.7 77l8.9.1v-8.4h-8.8z"/><path class="st14" d="M156.8 205.6c2.9.1 8.8.9 10.8-.4l-10.7.1 1.9-18.5h-4.3l.2 18.7 2.1.1z"/><path class="st13" d="M167.5 128.8l.1-14c.1-5.4 0-3.6-.7-4.3l-1.9 18.4 2.5-.1z"/><path class="st14" d="M142.2 219.1l6-1.9v-3.5l-6-.2zM154.6 215l3.5-1.6-2.1.1h-1.3z"/></g></svg>