<svg id="Layer_1" xmlns="http://www.w3.org/2000/svg" viewBox="0 0 130 130.9"><style>.st0{fill:#64bc62}.st1{fill:#4b9b49}.st2{fill:#fff}.st3{fill:#334a5e}.st4{fill:#cfd6e0}.st5{fill:#ffd05c}.st6{fill:#55c0eb}</style><path class="st0" d="M64.8 1.3c35.8 0 64.8 29 64.8 64.8s-29 64.8-64.8 64.8S0 101.9 0 66.1 29 1.3 64.8 1.3z"/><path class="st1" d="M128.8 75.8l-18-37.5-65.7 20-26.4 35.6 34.1 35.8c3.9.7 7.9 1.1 12 1.1 32.5.1 59.3-23.8 64-55z"/><path class="st2" d="M107.3 93.9H22.2c-1.9 0-3.5-1.5-3.5-3.5V41.7c0-1.9 1.5-3.5 3.5-3.5h85.2c1.9 0 3.5 1.5 3.5 3.5v48.7c0 2-1.7 3.5-3.6 3.5z"/><path class="st3" d="M18.7 49.1h92.1v12.8H18.7V49.1z"/><path class="st4" d="M25.5 72.1h24.2v2.1H25.5v-2.1zM25.5 77.6h24.2v2.1H25.5v-2.1zM25.5 83.1h24.2v2.1H25.5v-2.1z"/><path class="st5" d="M96.3 73.1c3.2 0 5.7 2.6 5.7 5.7 0 3.2-2.6 5.7-5.7 5.7-3.2 0-5.7-2.6-5.7-5.7s2.5-5.7 5.7-5.7z"/><path class="st6" d="M87.2 73.1c3.2 0 5.7 2.6 5.7 5.7 0 3.2-2.6 5.7-5.7 5.7-3.2 0-5.7-2.6-5.7-5.7s2.6-5.7 5.7-5.7z"/></svg>