<svg id="Layer_1" xmlns="http://www.w3.org/2000/svg" viewBox="0 0 130 130.9"><style>.st0{fill:#f99e82}.st1{fill:#db7c65}.st2{fill:#fff}.st3{fill:#e6e9ed}.st4{fill:#2b3b4e}.st5{fill:#334a5e}.st6{fill:#64bc62}</style><path class="st0" d="M65.8 1.8c35.3 0 63.8 28.6 63.8 63.8s-28.6 63.8-63.8 63.8S2 100.8 2 65.6 30.5 1.8 65.8 1.8z"/><path class="st1" d="M99.1 23.3l-53.8 25-16.8 61 6.3 12.1c9.2 5.1 19.7 8 31 8 34.1 0 61.9-26.7 63.7-60.3L99.1 23.3z"/><path class="st2" d="M50.2 23.3h48.9v86H28.6V45l21.6-21.7z"/><path class="st3" d="M50.2 45H28.6l21.6-21.7V45zM38.3 52.8h49.3v2.7H38.3v-2.7zM38.3 65h49.3v2.7H38.3V65zM38.3 77.2h49.3v2.7H38.3v-2.7zM38.3 89.4h49.3v2.7H38.3v-2.7z"/><path class="st4" d="M79.9 88.5l5.7-5.7 16.7 16.7-5.7 5.6-16.7-16.6z"/><path class="st5" d="M80.8 83.8c-8.4 8.4-22 8.4-30.2 0s-8.4-22 0-30.2c8.4-8.4 22-8.4 30.2 0 8.4 8.2 8.4 21.8 0 30.2zM45.3 48.3c-11.2 11.2-11.2 29.4 0 40.7 11.2 11.2 29.4 11.2 40.7 0 11.2-11.2 11.2-29.4 0-40.7-11.1-11.4-29.3-11.4-40.7 0z"/><path class="st6" d="M103.2 117.3c4.9-3.5 8.8-7.4 11.7-10.9L98.4 90.1c-.7-.7-1.9-.7-2.6 0l-8.7 8.7c-.7.7-.7 1.9 0 2.6l16.1 15.9z"/></svg>