<svg id="Layer_1" xmlns="http://www.w3.org/2000/svg" xmlns:xlink="http://www.w3.org/1999/xlink" viewBox="0 0 130 130.9"><style>.st0{clip-path:url(#SVGID_2_)}.st1{fill:#8fa0bc}.st2{fill:#f0f3f4}.st3{fill:#afafaf}.st4{fill:#7286a3}</style><defs><circle id="SVGID_1_" cx="65" cy="66.1" r="65"/></defs><clipPath id="SVGID_2_"><use xlink:href="#SVGID_1_" overflow="visible"/></clipPath><g class="st0"><path class="st1" d="M65.1.4c36.3 0 65.8 29.4 65.8 65.8S101.5 132 65.1 132-.7 102.5-.7 66.1 28.8.4 65.1.4z"/><path class="st2" d="M100.2 25.4H30c-2.7 0-4.8 2.2-4.8 4.8V135c0 2.7 2.2 4.8 4.8 4.8h70.1c2.7 0 4.8-2.2 4.8-4.8V30.3c.1-2.7-2.1-4.9-4.7-4.9z"/><path class="st3" d="M65.5 34.9c-12.8-.2-23.3 10-23.5 22.7-.1 7.2 3.1 13.8 8.2 18.1.3-.3.7-.6 1.1-.8l6.9-3.8c.9-.5 1.5-1.4 1.5-2.5v-2.8s-2-2.4-2.8-5.8c-.6-.4-1.1-1.1-1.1-1.9V55c0-.7.3-1.3.8-1.7v-4.5s-.9-7 8.5-7 8.5 7 8.5 7v4.5c.5.4.8 1 .8 1.7v3.1c0 1-.7 1.9-1.6 2.2-.5 1.6-1.3 3.2-2.3 4.6-.3.4-.5.7-.7.9v2.9c0 1.1.6 2 1.6 2.5l7.4 3.7c.4.2.8.5 1.2.8 5-4.2 8.2-10.4 8.3-17.4.1-12.6-10-23.2-22.8-23.4zM35.9 87.8h56.7v4.6H35.9zM35.9 99.4h56.7v4.6H35.9zM44.8 111h38.9v4.6H44.8z"/><path class="st4" d="M105 29.1v90.4c11.5-9.5 18.1-22.6 21.6-32.9l-.6-1.7-21-59h-1.8c1.1.7 1.8 1.9 1.8 3.2z"/></g></svg>