<svg id="Layer_1" xmlns="http://www.w3.org/2000/svg" xmlns:xlink="http://www.w3.org/1999/xlink" viewBox="0 0 210.5 214.5"><style>.st0{fill:#4a87c4}.st0,.st1,.st2{fill-rule:evenodd;clip-rule:evenodd}.st1{clip-path:url(#SVGID_2_);fill:#f7bb55}.st2{fill:#606062}.st2,.st3,.st4{clip-path:url(#SVGID_2_)}.st3{fill-rule:evenodd;clip-rule:evenodd;fill:#fefefe}.st4{fill:#4d87c3}.st4,.st5,.st6,.st7{fill-rule:evenodd;clip-rule:evenodd}.st5{clip-path:url(#SVGID_2_);fill:#a9abae}.st6,.st7{fill:#fefefe}.st7{fill:#606062}</style><path class="st0" d="M105.2 4c58.1 0 105.2 47.1 105.2 105.2s-47.1 105.2-105.2 105.2S0 167.4 0 109.3 47.1 4 105.2 4"/><defs><path id="SVGID_1_" d="M105.2 4c58.1 0 105.2 47.1 105.2 105.2s-47.1 105.2-105.2 105.2S0 167.4 0 109.3 47.1 4 105.2 4"/></defs><clipPath id="SVGID_2_"><use xlink:href="#SVGID_1_" overflow="visible"/></clipPath><path class="st1" d="M99.80000000000001 45.900000000000006H85.2l-.1 19 .3 1.9 14.3-.1.1-20.8zm0 27.8H85.2v19l.3 1.9 14.4-.1-.1-20.8zm9 82.7l-.4 4.1 2.4-.1c.8-.3 1.9-.7 3.3-1.4 1.3.6 2.5 1.1 3.3 1.4l2.4.1 1.5.1.1 1.7 7.1 2.4.1-3.9 6.6-.2-.1-8.8-6.6-.1V131l14.6-.1.1 8.9c1-1.9 5.4-5 7.2-7.5V38.1L135 38v-.1H77.9v94.2c1.8 2.5 6.2 5.6 7.2 7.5l.1-8.9 14.6.1.1 19.9c1.1 1.3 5 3.6 8.9 5.7zm2.7-25.5h9.9v1.4l-.2 19c-.3.1-.5.3-.9.4h-1.4c-1.2 0-3 .2-4.8.3-1.8-.1-3.6-.3-4.8-.3v.2c-1-.1-1.8-.3-2.4-.7l-.1-20.4 4.7.1zm9.1-85c.5.5.7-.1.8.7l-.2 19.7c-.3.2-.4.3-.6.4h-10.8c-2 0-1.7.4-2.9-.5l-.1-15.5c-.1-6 0-4 .8-4.8h13zm12.6 0h9.8l.1 19-.3 1.9-14.2-.1h-.2V45.9h4.8zm0 27.8h9.8v19l-.3 1.9-13.9-.1h-.5V73.7h4.9zm.1 28.2h9.7v20.9h-8l-6.6-.1V102l4.9-.1zm-12.1 0H107v20.8c1.9-.5 4.8-.5 7.1-.2 2.3-.3 5.2-.4 7.1.2v-20.8zm-14.3-7.8h14.3v.1h.1l.2-19.5v-.9l-10.9-.1-3.8.1.1 20.3zm-7.1 7.8H85.2v20.9h12.6l2-.2v-20.7z"/><path class="st2" d="M22.7 112.3h162.1c2 0 3.6 1.6 3.6 3.6v96.4c0 2-1.6 3.6-3.6 3.6H22.7c-2 0-3.6-1.6-3.6-3.6v-96.4c0-2 1.6-3.6 3.6-3.6"/><path class="st3" d="M29.4 129.5h149.7c1.6 0 2.9 1.3 2.9 2.9v74.4c0 1.6-1.3 2.9-2.9 2.9H29.4c-1.6 0-2.9-1.3-2.9-2.9v-74.4c-.1-1.6 1.2-2.9 2.9-2.9"/><path class="st4" d="M55.3 144.6c6.5 0 11.8 5.3 11.8 11.8 0 6.5-5.3 11.8-11.8 11.8-6.5 0-11.8-5.3-11.8-11.8 0-6.5 5.3-11.8 11.8-11.8M37.2 194.6h36.2v-11.2c0-6.2-5-11.2-11.2-11.2H48.4c-6.2 0-11.2 5-11.2 11.2v11.2z"/><path class="st5" d="M90.9 140.9h77.5c1.6 0 3 1.3 3 3 0 1.6-1.3 3-3 3H90.9c-1.6 0-3-1.3-3-3 0-1.6 1.4-3 3-3M90.9 156.9h38.8c1.6 0 3 1.3 3 3 0 1.6-1.3 3-3 3H90.9c-1.6 0-3-1.3-3-3s1.4-3 3-3M90.9 172.8h77.5c1.6 0 3 1.3 3 3 0 1.6-1.3 3-3 3H90.9c-1.6 0-3-1.3-3-3s1.4-3 3-3M90.9 188.7h65c1.6 0 3 1.3 3 3 0 1.6-1.3 3-3 3h-65c-1.6 0-3-1.3-3-3 0-1.6 1.4-3 3-3"/><path class="st6" d="M85.9 116.9h38.7v8.5H85.9z"/><path class="st7" d="M98.1 103.8h14.4v18.4H98.1z"/><path class="st6" d="M151.8 58.8h20.4c3.7-.1 5.5-1.9 6.2-5.2l-.2-2.6c-.5-.9-1-1.7-1.3-2.3-1.1-.8-2-1.5-4-1.7-1.2-2.9-3.4-4.4-7.2-3.3l-1.4-1.4-.3-.1-.2-.2c-6.5-4.2-13.5-.2-14.5 6.5-.3.3 0 .1-.6.3-.9.4-1.7.4-2.8 1.9-.8 1.2-1.2 2.6-.8 4.2.8 3.9 4.1 4 6.7 3.9M26 84.8h35.2c6.4-.2 9.5-3.3 10.7-9l-.4-4.5c-.8-1.5-1.7-2.9-2.3-4-1.9-1.4-3.4-2.6-6.8-2.9-2-4.9-5.9-7.5-12.5-5.7l-2.4-2.5-.6-.2-.3-.3c-11.4-7.2-23.4-.4-25.2 11.3-.5.4 0 .2-1 .6-1.6.7-3 .6-4.9 3.3-1.5 2-2.1 4.5-1.5 7.3 1.6 6.5 7.4 6.6 12 6.6"/></svg>