<svg id="Layer_1" xmlns="http://www.w3.org/2000/svg" viewBox="0 0 130 130.9"><style>.st0{fill:#5bc4bc}.st1{fill:#fcc39a}.st2{fill:#fdd6bf}.st3{fill:#5e6a7a}</style><path class="st0" d="M65.3 3.3c34.8 0 63 28.2 63 63s-28.2 63-63 63-63-28.2-63-63 28.2-63 63-63z"/><path class="st1" d="M36.1 78.9l33.8-40.1H115v40.7H91.5l-26.7 25-28.7-25.6z"/><path class="st2" d="M96.4 70.1L65.3 38.8H15.6v40.6h21.5l24.2 24.2c2.2 2.2 5.7 2.2 7.8 0 2.2-2.2 2.2-5.7 0-7.8L50.6 77.4l1-1 20 20c2.2 2.2 5.7 2.2 7.8 0 2.2-2.2 2.2-5.7 0-7.8L59.6 68.7l1-1L82 89c2.2 2.2 5.7 2.2 7.8 0 2.2-2.2 2.2-5.7 0-7.8L68.7 60l1-1 18.8 18.8c2.2 2.2 5.7 2.2 7.8 0 2.3-2.1 2.3-5.6.1-7.7z"/><path class="st3" d="M2.2 66.4c0 7.8 1.4 15.3 4 22.2h16.1V38.8H8.6c-4.1 8.3-6.4 17.7-6.4 27.6z"/><path class="st1" d="M55.1 53.6l14.8-14.8 7.8 7.8L63 61.4c-2.2 2.2-5.7 2.2-7.8 0-2.3-2.1-2.3-5.6-.1-7.8z"/><path class="st3" d="M108.2 88.5h16.1c2.6-6.9 4-14.4 4-22.2 0-9.9-2.3-19.2-6.3-27.5h-13.8v49.7z"/><path class="st1" d="M61.4 95.1c2.9 0 5.3 2.4 5.3 5.3s-2.4 5.3-5.3 5.3-5.3-2.4-5.3-5.3 2.4-5.3 5.3-5.3zM52.8 89.2c2.9 0 5.3 2.4 5.3 5.3s-2.4 5.3-5.3 5.3-5.3-2.4-5.3-5.3 2.3-5.3 5.3-5.3zM45.3 81.9c2.9 0 5.3 2.4 5.3 5.3s-2.4 5.3-5.3 5.3-5.3-2.4-5.3-5.3 2.4-5.3 5.3-5.3zM37.4 74.9c2.9 0 5.3 2.4 5.3 5.3s-2.4 5.3-5.3 5.3-5.3-2.4-5.3-5.3 2.4-5.3 5.3-5.3z"/></svg>