<svg id="Layer_1" xmlns="http://www.w3.org/2000/svg" viewBox="0 0 150 150"><style>.st0{fill:none}.st1{fill:#faa618}.st2{fill:#fbce17}.st3{fill:#fefefe}</style><path id="XMLID_42_" class="st0" d="M.4 0h150v150H.4z"/><g id="XMLID_67_"><path id="XMLID_45_" class="st1" d="M46.6 13.3h83.7c3.5 0 6.2 3.5 6.2 6.8V130c0 4.1-2.7 6.8-6.2 6.8H22c-4.1 0-6.8-2.7-6.8-6.8V46.2l31.4-32.9z"/><path id="XMLID_44_" class="st2" d="M39 46.1H14.4l32.1-32.9v25.3c.1 4.2-3.3 7.6-7.5 7.6z"/><path id="XMLID_43_" class="st3" d="M85.9 107.7c0 5.5-4.4 9.9-9.9 9.9s-9.9-4.4-9.9-9.9 4.4-9.9 9.9-9.9 9.9 4.4 9.9 9.9z"/><path id="XMLID_41_" class="st3" d="M83.3 92.9H68.5c0-14.9 8-19.8 13.5-22.9 1.9-.8 3.3-1.9 4.4-3.1 2.5-2.5 1.4-5.8.8-6.9-1.4-3.3-5-6.9-11.3-6.9-10.4 0-12.4 9.4-12.4 11.3l-14.9-2c1.1-8.3 8.5-24.2 27.3-24.2 11.3 0 21.2 6.3 25.3 15.9 3.3 8.3 1.9 17.4-4.1 23.1-2.5 2.5-5.5 3.9-8 5.5-4.3 2.7-5.8 5.2-5.8 10.2z"/></g></svg>