<svg id="Layer_1" xmlns="http://www.w3.org/2000/svg" viewBox="0 0 150 150"><style>.st0,.st1,.st2{fill-rule:evenodd;clip-rule:evenodd;fill:#0f347b}.st1,.st2{fill:#15408e}.st2{fill:#fefefe}</style><g id="XMLID_5_"><path id="XMLID_3_" class="st0" d="M132.2 67.8c-.2-1.5-2.1-2.8-3.6-2.8-5.5 0-10.2-3.2-12.3-8-1.9-5.1-.6-10.8 3.4-14.6 1.1-1.1 1.3-3 .4-4.4-2.8-3.6-5.9-6.6-9.3-9.5-1.3-.9-3.4-.9-4.5.4-3.4 4-9.9 5.3-14.6 3.2-5.1-2.1-8.3-7.2-8-12.7.2-1.7-1.1-3.2-2.8-3.4-2.3-.2-4.4-.4-6.6-.4h-.4c-2.1 0-4.2.2-6.3.4-1.7.2-3 1.7-2.8 3.4.2 5.3-3 10.4-8.1 12.5-4.7 1.9-11 .6-14.4-3.4-1.1-1.1-3.2-1.3-4.5-.4-3.4 2.8-6.6 6.1-9.5 9.5-.9 1.3-.9 3.2.4 4.4 4.2 3.8 5.5 9.7 3.2 14.8-1.9 4.7-7 8-12.7 8-1.9-.2-3.2 1.1-3.4 2.8-.2 2.1-.4 4.4-.4 6.4v.4c0 2.3.2 4.4.4 6.4.2 1.7 2.1 2.8 3.8 2.8 5.1 0 10 3 12.1 8.1 2.1 4.9.8 10.8-3.2 14.4-1.3 1.1-1.5 3.2-.4 4.5 2.7 3.4 5.9 6.6 9.3 9.3 1.3 1.1 3.2.9 4.4-.4 3.6-3.8 9.9-5.3 14.8-3.2 4.9 2.1 8.1 7.2 8 12.7-.2 1.7 1.1 3.2 2.8 3.4 2.3.4 4.4.4 6.6.4s4.4 0 6.4-.2c1.7-.2 3-1.7 3-3.4-.2-5.5 3-10.4 8-12.5 4.9-2.1 11-.6 14.6 3.2 1.1 1.3 3 1.5 4.4.4 3.6-2.7 6.6-5.9 9.5-9.3 1.1-1.3.9-3.4-.4-4.5-4-3.6-5.3-9.5-3.2-14.6 2.1-4.7 6.8-8 11.9-8h.8c1.7.2 3.2-1.1 3.4-2.8.4-4.2.4-8.8-.2-13.3z"/><path id="XMLID_2_" class="st1" d="M73.9 15.7c-2.1 0-4.2.2-6.3.4-1.7.2-3 1.7-2.8 3.4.2 5.3-3 10.4-8.1 12.5-4.7 1.9-11 .6-14.4-3.4-1.1-1.1-3.2-1.3-4.5-.4-3.4 2.8-6.6 6.1-9.5 9.5-.9 1.3-.9 3.2.4 4.4 4.2 3.8 5.5 9.7 3.2 14.8-1.9 4.7-7 8-12.7 8-1.9-.2-3.2 1.1-3.4 2.8-.2 2.1-.4 4.4-.4 6.4v.4c0 2.3.2 4.4.4 6.4.2 1.7 2.1 2.8 3.8 2.8 5.1 0 10 3 12.1 8.1 2.1 4.9.8 10.8-3.2 14.4-1.3 1.1-1.5 3.2-.4 4.5 2.7 3.4 5.9 6.6 9.3 9.3 1.3 1.1 3.2.9 4.4-.4 3.6-3.8 9.9-5.3 14.8-3.2 4.9 2.1 8.1 7.2 8 12.7-.2 1.7 1.1 3.2 2.8 3.4 2.1.4 4.4.4 6.6.4-.1-48.8-.1-68.2-.1-117.2z"/><path id="XMLID_1_" class="st2" d="M61.2 46.9c1.9 0 3.4 1.5 3.4 3.4v18.8c5.5-3.8 14.2-3.8 19.3.6V50.3c0-1.9 1.5-3.4 3.4-3.4s3.4 1.5 3.4 3.4v48.1c0 1.7-1.5 3.2-3.4 3.2s-3.4-1.5-3.4-3.2V82c-.6-12-18.4-12.5-19.3-1.2v17.6c0 1.7-1.5 3.2-3.4 3.2s-3.4-1.5-3.4-3.2V50.3c0-1.9 1.5-3.4 3.4-3.4z"/></g></svg>