<svg id="Layer_1" xmlns="http://www.w3.org/2000/svg" viewBox="0 0 80.7 80.1"><style>.st0{fill:#4173a9;stroke:#4173a9;stroke-width:2;stroke-miterlimit:10}.st1{fill:#29d354}.st2{fill:#4173a9}.st3{fill:#29d354;stroke:#29d354;stroke-width:2;stroke-miterlimit:10}</style><g id="XMLID_23_"><g id="XMLID_17_"><path id="XMLID_26_" class="st0" d="M40.1 79.4C18.4 79.4.8 61.7.8 40S18.4.7 40.1.7 79.4 18.4 79.4 40 61.8 79.4 40.1 79.4zm0-77.3c-20.9 0-38 17-38 38s17 38 38 38 38-17 38-38-17.1-38-38-38z"/></g><g id="XMLID_20_"><g id="XMLID_120_"><circle id="XMLID_123_" class="st1" cx="23.6" cy="40" r="5.2"/><circle id="XMLID_122_" class="st2" cx="39.2" cy="40" r="5.2"/><circle id="XMLID_121_" class="st2" cx="54.7" cy="40" r="5.2"/></g></g><path id="XMLID_32_" class="st3" d="M66.4 10.9l-.9 1c7.7 7 12.5 17 12.5 28.2 0 15.6-9.5 29.1-23 34.9l.6 1.3c14-6 23.9-20 23.9-36.2-.1-11.6-5.1-22-13.1-29.2z"/></g></svg>