<svg id="Layer_1" xmlns="http://www.w3.org/2000/svg" viewBox="0 0 165.2 188.2"><style>.st0{fill:#c9ccd4}.st1{fill:#96989a}.st2{fill:#fdbc2d}.st3{fill:#faaa31}.st4{fill:#725f35}</style><g id="Layer_x0020_1"><g id="_135439448"><path class="st0" d="M105.6 103.3l.9.1 29.3 2.1c.1-15.9 1.8-55.9-2.7-68.1C118.7-1.7 66.5-7 43.6 23.9 30.1 42.1 33.3 55.2 33.3 85h30.2c0-8.4-1.3-32.6 1.7-38.5 8.1-15.3 28.9-16.5 37.9-1.2 3.5 5.8 2.4 9.3 2.4 17.7.1 13.4.1 26.9.1 40.3z"/><path class="st0" d="M8.1 181.2c2.7-2.9 29.4-17.5 34.8-20.6 6.1-3.5 32.2-19.5 36.4-20.1-2.4-3.7-8-4-9.3-12.5-1.1-7 2.2-12.3 6-14.8 11.6-7.6 23.6.9 23 14.6 3.1-1.1 4.1-2.3 7.4-3.7v63.5c6.2 0 9.9-.5 14.7-.9 5-.4 10.3-1 14.6-1l-.2-78.7L165 90.4c0-5.5 1.2-5.2-3.3-6.5-2.1-.6-5.4-1.2-8.4-1.8-3.2-.6-14.2-2.6-17.6-2.1l-29.3-2-.9-.1c-13-.4-41.9-1.4-53.7.2-11 1.5-38.5 2.6-47.8 7.1v86.9c0 6.5-1.6 8.7 4.1 9.1z"/><path class="st0" d="M99.1 127.9c-1.9 8.9-4.6 7.5-9.4 12l5.9 22.2-22.1-.1 5.9-21.4c-4.2.6-30.3 16.6-36.4 20.1-5.4 3.1-32.2 17.7-34.8 20.6 5 3.1 36.1 5.5 45.4 6.3 15.4 1.3 64.5.7 89.9-2.5l-2.9-80.8c-3.4 1.4-38.4 22.5-41.5 23.6z"/><path class="st0" d="M135.6 107.1l.2 78.7c6-.1 25.3-3.5 29.2-5.5V90.4l-29.4 16.7zM79.3 140.5l-5.9 21.4 22.1.1-5.9-22.2c4.8-4.5 7.5-3 9.4-12 .6-13.8-11.4-22.2-23-14.6-3.8 2.4-7.1 7.8-6 14.8 1.4 8.6 7 8.8 9.3 12.5z"/><path class="st1" d="M101.8 99.4l.9.1 29.3 2.1c.1-15.9 1.8-55.9-2.7-68.1-14.5-39.2-66.6-44.4-89.4-13.6C26.4 38.2 29.6 51.3 29.6 81h30.2c0-8.4-1.4-32.6 1.7-38.4 8.1-15.4 28.8-16.6 37.9-1.2 3.4 5.8 2.4 9.3 2.4 17.7v40.3z"/><path class="st2" d="M4.3 177.3c2.7-2.9 29.4-17.5 34.8-20.6 6.1-3.5 32.2-19.5 36.4-20.1-2.4-3.7-8-4-9.3-12.5-1.1-7 2.2-12.3 6-14.8 11.6-7.6 23.6.9 23 14.6 3.1-1 4.1-2.2 7.4-3.7v63.4c6.2 0 9.9-.5 14.7-.9 5-.4 10.3-.9 14.5-.9l-.1-78.8 29.4-16.6c0-5.5 1.2-5.1-3.4-6.5-2-.6-5.3-1.2-8.3-1.7-3.2-.6-14.2-2.7-17.6-2.2l-29.3-2-.9-.1c-13-.4-41.9-1.4-53.7.1C37 75.7 9.6 76.8.3 81.2v86.9c-.2 6.6-1.7 8.8 4 9.2z"/><path class="st3" d="M95.3 123.9c-2 9-4.6 7.5-9.4 12l5.8 22.2h-22l5.9-21.5c-4.2.6-30.3 16.6-36.4 20.1-5.4 3.1-32.2 17.7-34.8 20.6 5 3.2 36.1 5.6 45.4 6.4 15.4 1.2 64.4.7 89.9-2.6l-2.9-80.8c-3.3 1.4-38.4 22.6-41.5 23.6z"/><path class="st3" d="M131.8 103.1l.1 78.8c6.1-.1 25.3-3.6 29.3-5.5V86.5l-29.4 16.6z"/><path class="st4" d="M75.6 136.6L69.7 158h22l-5.8-22.2c4.8-4.5 7.4-3 9.4-12 .6-13.7-11.4-22.2-23-14.6-3.8 2.4-7.1 7.8-6 14.8 1.3 8.6 6.9 8.8 9.3 12.6z"/></g></g></svg>