<svg id="Layer_1" xmlns="http://www.w3.org/2000/svg" viewBox="0 0 192 251.2"><style>.st0,.st1,.st2,.st3,.st4,.st5{fill-rule:evenodd;clip-rule:evenodd;fill:#666}.st1,.st2,.st3,.st4,.st5{fill:#b3b3b3}.st2,.st3,.st4,.st5{fill:#fff}.st3,.st4,.st5{fill:#9099ab}.st4,.st5{fill:#e6e6e6}.st5{fill:#838ea1}</style><path class="st0" d="M53.1 114.8h80.1v134.8l-38.5-27.2-41.6 27.2z"/><path class="st1" d="M95.7 184.9c49.9 0 90.7-40.8 90.7-90.7 0-50-40.8-90.8-90.7-90.8-50 0-90.8 40.8-90.8 90.8 0 49.9 40.8 90.7 90.8 90.7z"/><path class="st2" d="M95.7 167.8c40.5 0 73.6-33.1 73.6-73.6 0-40.6-33.1-73.7-73.6-73.7C55.1 20.5 22 53.6 22 94.2c0 40.5 33.1 73.6 73.7 73.6z"/><path class="st3" d="M95.7 154.7c33.2 0 60.5-27.3 60.5-60.5 0-33.3-27.3-60.5-60.5-60.5-33.3 0-60.5 27.2-60.5 60.5 0 33.2 27.2 60.5 60.5 60.5z"/><path class="st4" d="M95.7 94.2V33.7c-33.4 0-60.5 27.1-60.5 60.5 0 33.3 27.1 60.5 60.5 60.5V94.2z"/><path class="st2" d="M95.7 142.8c26.8 0 48.6-21.8 48.6-48.6s-21.8-48.7-48.6-48.7S47 67.4 47 94.2s21.9 48.6 48.7 48.6z"/><path class="st5" d="M95.7 60.9l8.2 25.5 26.7-.1L109 102l8.2 25.3-21.5-15.7-21.6 15.7 8.3-25.3-21.7-15.7 26.8.1z"/></svg>