<svg id="Layer_1" xmlns="http://www.w3.org/2000/svg" viewBox="0 0 192 251.2"><style>.st0,.st1,.st2,.st3{fill-rule:evenodd;clip-rule:evenodd;fill:#c38236}.st1,.st2,.st3{fill:#ebbc59}.st2,.st3{fill:#fff}.st3{fill:#e19334}</style><path class="st0" d="M53.4 114h80.1v134.7L95 221.5l-41.6 27.2z"/><path class="st1" d="M96.1 184c49.9 0 90.7-40.8 90.7-90.7 0-50-40.8-90.8-90.7-90.8C46 2.5 5.2 43.3 5.2 93.3 5.2 143.2 46 184 96.1 184z"/><path class="st2" d="M96.1 166.9c40.5 0 73.6-33.1 73.6-73.6 0-40.6-33.1-73.7-73.6-73.7-40.6 0-73.7 33.1-73.7 73.7-.1 40.5 33 73.6 73.7 73.6z"/><path class="st3" d="M96.1 153.8c33.2 0 60.5-27.3 60.5-60.5 0-33.3-27.3-60.5-60.5-60.5-33.3 0-60.5 27.2-60.5 60.5-.1 33.3 27.1 60.5 60.5 60.5z"/><path class="st2" d="M96.1 141.9c26.8 0 48.6-21.8 48.6-48.6s-21.8-48.7-48.6-48.7-48.8 21.9-48.8 48.7 21.9 48.6 48.8 48.6z"/><path class="st3" d="M96.1 60.1l8.2 25.4 26.6-.1-21.6 15.7 8.2 25.4-21.4-15.7-21.6 15.7 8.3-25.4-21.7-15.7 26.7.1z"/></svg>