<svg id="Layer_1" xmlns="http://www.w3.org/2000/svg" viewBox="0 0 192 251.2"><style>.st0,.st1,.st2,.st3{fill-rule:evenodd;clip-rule:evenodd;fill:#574d3a}.st1,.st2,.st3{fill:#998152}.st2,.st3{fill:#fff}.st3{fill:#e6e6e6}.st10,.st4,.st5,.st6,.st7,.st8,.st9{fill-rule:evenodd;clip-rule:evenodd;fill:#666}.st10,.st5,.st6,.st7,.st8,.st9{fill:#b3b3b3}.st10,.st6,.st7,.st8,.st9{fill:#9099ab}.st10,.st7,.st8,.st9{fill:#838ea1}.st10,.st8,.st9{fill:#c38236}.st10,.st9{fill:#ebbc59}.st10{fill:#e19334}</style><path class="st0" d="M52 113.5h80.1v134.7L93.6 221 52 248.2z"/><path class="st1" d="M94.7 183.5c49.9 0 90.7-40.8 90.7-90.7 0-50-40.8-90.8-90.7-90.8C44.6 2 3.8 42.8 3.8 92.8c0 49.9 40.8 90.7 90.9 90.7z"/><path class="st1" d="M185.4 92.8c0 50.1-40.6 90.7-90.7 90.7S3.8 143 3.8 92.8 44.5 2 94.7 2v90.8h90.7z"/><path class="st2" d="M94.6 166.4c40.5 0 73.6-33.1 73.6-73.6 0-40.6-33.1-73.7-73.6-73.7-40.6 0-73.7 33.1-73.7 73.7 0 40.5 33.1 73.6 73.7 73.6z"/><path class="st1" d="M94.7 153.3c33.2 0 60.5-27.3 60.5-60.5 0-33.3-27.3-60.5-60.5-60.5-33.3 0-60.5 27.2-60.5 60.5-.1 33.3 27.1 60.5 60.5 60.5z"/><path class="st3" d="M155.2 92.8c0 33.3-27.2 60.5-60.5 60.5-33.4 0-60.5-27.2-60.5-60.5 0-33.4 27.1-60.5 60.5-60.5v60.5h60.5z"/><path class="st2" d="M94.6 141.4c26.8 0 48.6-21.8 48.6-48.6s-21.8-48.7-48.6-48.7S45.9 66 45.9 92.8s21.9 48.6 48.7 48.6z"/><path class="st1" d="M94.7 59.6l8.2 25.4 26.6-.1-21.6 15.7 8.2 25.4-21.4-15.7L73.1 126l8.3-25.4-21.7-15.7 26.7.1z"/><g><path class="st4" d="M-505.4 368h19.8v33.4l-9.5-6.7-10.3 6.7z"/><path class="st5" d="M-494.9 385.4c12.4 0 22.5-10.1 22.5-22.5s-10.1-22.5-22.5-22.5-22.5 10.1-22.5 22.5 10.1 22.5 22.5 22.5z"/><path class="st2" d="M-494.9 381.2c10 0 18.2-8.2 18.2-18.2 0-10.1-8.2-18.3-18.2-18.3-10.1 0-18.3 8.2-18.3 18.3.1 10 8.2 18.2 18.3 18.2z"/><path class="st6" d="M-494.9 377.9c8.2 0 15-6.8 15-15 0-8.3-6.8-15-15-15-8.3 0-15 6.7-15 15s6.8 15 15 15z"/><path class="st3" d="M-494.9 362.9v-15c-8.3 0-15 6.7-15 15s6.7 15 15 15v-15z"/><path class="st2" d="M-494.9 375c6.6 0 12-5.4 12-12s-5.4-12.1-12-12.1-12.1 5.4-12.1 12.1 5.5 12 12.1 12z"/><path class="st7" d="M-494.9 354.7l2.1 6.3h6.6l-5.4 3.9 2 6.2-5.3-3.9-5.3 3.9 2-6.2-5.3-3.9h6.6z"/></g><g><path class="st8" d="M-448.5 368h19.8v33.4l-9.5-6.7-10.3 6.7z"/><path class="st9" d="M-438 385.4c12.4 0 22.5-10.1 22.5-22.5s-10.1-22.5-22.5-22.5-22.5 10.1-22.5 22.5 10.1 22.5 22.5 22.5z"/><path class="st2" d="M-438 381.2c10 0 18.2-8.2 18.2-18.2 0-10.1-8.2-18.3-18.2-18.3-10.1 0-18.3 8.2-18.3 18.3.1 10 8.3 18.2 18.3 18.2z"/><path class="st10" d="M-438 377.9c8.2 0 15-6.8 15-15 0-8.3-6.8-15-15-15-8.3 0-15 6.7-15 15s6.8 15 15 15z"/><path class="st2" d="M-438 375c6.6 0 12-5.4 12-12s-5.4-12.1-12-12.1-12.1 5.4-12.1 12.1 5.5 12 12.1 12z"/><path class="st10" d="M-438 354.7l2.1 6.3h6.6l-5.4 3.9 2.1 6.2-5.4-3.9-5.3 3.9 2-6.2-5.3-3.9h6.6z"/></g></svg>