<svg id="Layer_1" xmlns="http://www.w3.org/2000/svg" viewBox="0 0 99.4 180"><style>.st0{fill:url(#XMLID_86_)}.st1{fill:url(#XMLID_87_)}.st2,.st3,.st4{fill:url(#XMLID_88_);stroke:#161616;stroke-width:.5;stroke-miterlimit:10}.st3,.st4{fill:url(#XMLID_89_)}.st4{fill:url(#XMLID_90_)}</style><g id="XMLID_307_"><linearGradient id="XMLID_86_" gradientUnits="userSpaceOnUse" x1="49.724" y1="34.332" x2="49.724" y2="153.82"><stop offset="0" stop-color="#a5a3a3"/><stop offset=".502" stop-color="#fff"/><stop offset=".892" stop-color="#838181"/></linearGradient><path id="XMLID_257_" class="st0" d="M98.8 98.3V73.9s.1-.1.2-.1c.2-.1.4-.3.4-.5v-4.6c0-.3-.2-.5-.5-.5h-.1v-13c0-.1 0-.1.1-.2V10c0-5.5-5.1-10-11.3-10H11.3C5.1 0 0 4.5 0 10v160.2c0 5.5 5.1 10 11.3 10h76.3c6.2 0 11.3-4.5 11.3-10v-38.8l.3-.3c.1-.2.2-.4.2-.6V99.3c0-.2-.1-.5-.3-.7-.1-.1-.3-.2-.3-.3zm-3.2 59c0 .5-.5.9-1 .9H4.4c-.6 0-1-.4-1-.9V15.1c0-.5.5-.9 1-.9h90.2c.6 0 1 .4 1 .9v142.2z"/><linearGradient id="XMLID_87_" gradientUnits="userSpaceOnUse" x1="83.016" y1="90.005" x2="-63.593" y2="90.005"><stop offset="0" stop-color="#151414"/><stop offset="1" stop-color="#615e5e"/></linearGradient><path id="XMLID_31_" class="st1" d="M87.5 0H11.9C5.7 0 .6 4.5.6 10v160c0 5.5 5.1 10 11.3 10h75.6c6.2 0 11.3-4.5 11.3-10V10c.1-5.5-5-10-11.3-10zm8.3 157.5c0 .5-.5.9-1 .9H4.6c-.6 0-1-.4-1-.9V15.6c0-.5.5-.9 1-.9h90.2c.6 0 1 .4 1 .9v141.9z"/><linearGradient id="XMLID_88_" gradientUnits="userSpaceOnUse" x1="50.799" y1="9.201" x2="50.799" y2="2.52"><stop offset=".187" stop-color="#000001"/><stop offset=".783" stop-color="#838181"/></linearGradient><path id="XMLID_273_" class="st2" d="M67.6 8.1H34c-.7 0-1.2-.6-1.2-1.2 0-.7.6-1.2 1.2-1.2h33.7c.7 0 1.2.6 1.2 1.2 0 .7-.6 1.2-1.3 1.2z"/><linearGradient id="XMLID_89_" gradientUnits="userSpaceOnUse" x1="1715.843" y1="171.847" x2="1715.843" y2="167.643" gradientTransform="matrix(-1 0 0 1 1765.567 0)"><stop offset=".229" stop-color="#000001"/><stop offset=".334" stop-color="#050506"/><stop offset=".456" stop-color="#131314"/><stop offset=".588" stop-color="#2b2a2b"/><stop offset=".725" stop-color="#4b4a4b"/><stop offset=".866" stop-color="#757374"/><stop offset=".908" stop-color="#838181"/></linearGradient><path id="XMLID_277_" class="st3" d="M66.6 168.6H32.9c-.7 0-1.2.6-1.2 1.2 0 .7.6 1.2 1.2 1.2h33.7c.7 0 1.2-.6 1.2-1.2 0-.7-.6-1.2-1.2-1.2z"/><radialGradient id="XMLID_90_" cx="25.306" cy="7.126" r="3.07" gradientTransform="matrix(1.1246 0 0 1 -9.06 0)" gradientUnits="userSpaceOnUse"><stop offset=".094" stop-color="#838181"/><stop offset=".413" stop-color="#000001"/></radialGradient><path id="XMLID_274_" class="st4" d="M18.4 8.1c-.8-.4-1.1-1.3-.7-2s1.5-1 2.3-.6 1.1 1.3.7 2c-.4.7-1.4.9-2.3.6z"/></g></svg>