<svg id="Layer_1" xmlns="http://www.w3.org/2000/svg" viewBox="0 0 68.8 81.3"><style>.st0{fill:#ffd15d}.st1{fill:#f6b64c}</style><path class="st0" d="M52.5 4c9 0 16.3 7.3 16.3 16.3s-7.3 16.3-16.3 16.3-16.3-7.3-16.3-16.3S43.5 4 52.5 4z"/><path class="st1" d="M52.5 8.1c6.8 0 12.3 5.5 12.3 12.3 0 6.8-5.5 12.3-12.3 12.3-6.8 0-12.3-5.5-12.3-12.3 0-6.8 5.5-12.3 12.3-12.3z"/><path class="st0" d="M53.2 24.8c.4 0 .7-.4 1.1-.7.4-.4.4-.7.4-1.1 0-.4 0-.7-.4-1.1-.4-.4-.7-.4-1.1-.7v3.6zm-1.4-10c-.4 0-.7.4-.7.7-.4.4-.4.7-.4 1.1 0 .4 0 .7.4.7l.7.7v-3.2zm0 10v-4.1c-1.1-.4-2.2-.7-2.6-1.5-.7-.7-.7-1.5-.7-2.6s.4-1.9 1.1-2.6c.7-.7 1.5-1.1 2.6-1.1v-1.1h1.5v.7c1.1 0 1.9.4 2.2 1.1.7.7 1.1 1.5 1.1 2.2l-2.2.4c0-.7-.4-1.1-1.1-1.5v3.7c1.5.4 2.6 1.1 3 1.5.4.7.7 1.5.7 2.6s-.4 2.2-1.1 3c-.7.7-1.5 1.1-3 1.5v1.9h-1.5V27c-1.1 0-1.9-.4-2.6-1.1-.7-.7-1.1-1.5-1.1-3l2.6-.4c0 .4.4.7.7 1.1-.4.5 0 .9.4 1.2zM25.8 31.1c12.7 0 23 10.3 23 23s-10.3 23-23 23-23-10.3-23-23 10.3-23 23-23z"/><path class="st1" d="M25.8 36.7c9.6 0 17.4 7.8 17.4 17.4s-7.8 17.4-17.4 17.4c-9.6 0-17.4-7.8-17.4-17.4s7.7-17.4 17.4-17.4z"/><path class="st0" d="M26.9 60.8c.7 0 1.1-.4 1.5-.7.4-.4.7-1.1.7-1.9 0-.7 0-1.1-.4-1.5-.4-.4-.7-.7-1.9-1.1v5.2h.1zm-2.2-14.1c-.4 0-1.1.4-1.1.7-.4.4-.4.7-.4 1.5 0 .4 0 .7.4 1.5l1.1 1.1v-4.8zm0 13.8v-5.6c-1.9-.4-3-1.1-3.7-2.2-.7-1.1-1.1-2.2-1.1-3.7s.4-2.6 1.5-3.7c.7-1.1 2.2-1.5 3.7-1.9v-1.1H27v1.5c1.5 0 2.6.7 3.3 1.5.7.7 1.5 1.9 1.5 3.3l-3.4.4c-.4-1.1-.7-1.9-1.5-2.2V52c2.2.7 3.7 1.5 4.5 2.2.7.7 1.1 2.2 1.1 3.3 0 1.5-.4 3-1.5 4.1-1.1 1.1-2.2 1.9-4.1 1.9V66H25v-2.2c-1.5-.4-2.6-.7-3.7-1.9-1.1-1.1-1.5-2.2-1.9-4.1l3.3-.4c0 .7.4 1.5.7 1.9.5.8.9 1.2 1.3 1.2z"/></svg>