<svg id="Layer_1" xmlns="http://www.w3.org/2000/svg" xmlns:xlink="http://www.w3.org/1999/xlink" viewBox="0 0 224.2 229"><style>.st0,.st1,.st2,.st3,.st4,.st5{fill-rule:evenodd;clip-rule:evenodd;fill:#4a87c4}.st1,.st2,.st3,.st4,.st5{clip-path:url(#SVGID_2_);fill:#f7bb55}.st2,.st3,.st4,.st5{fill:#606062}.st3,.st4,.st5{fill:#fefefe}.st4,.st5{fill:#4d87c3}.st5{fill:#a9abae}.st10,.st11,.st6,.st7,.st8,.st9{fill-rule:evenodd;clip-rule:evenodd;fill:#fefefe}.st10,.st11,.st7,.st8,.st9{fill:#606062}.st10,.st11,.st8,.st9{fill:#36baad}.st10,.st11,.st9{fill:#3f3f41}.st10,.st11{fill:#fff}.st11{fill:#5f8481}</style><path class="st0" d="M729.3-141.6c58.1 0 105.2 47.1 105.2 105.2S787.4 68.8 729.3 68.8 624 21.7 624-36.4s47.2-105.2 105.3-105.2"/><defs><path id="SVGID_1_" d="M729.3-141.6c58.1 0 105.2 47.1 105.2 105.2S787.4 68.8 729.3 68.8 624 21.7 624-36.4s47.2-105.2 105.3-105.2"/></defs><clipPath id="SVGID_2_"><use xlink:href="#SVGID_1_" overflow="visible"/></clipPath><path class="st1" d="M723.9000000000001-99.8h-14.6l-.1 19 .3 1.9 14.3-.1.1-20.8zm0 27.8h-14.6v19l.3 1.9 14.4-.1-.1-20.8zm9 82.7l-.4 4.1 2.4-.1c.8-.3 1.9-.7 3.3-1.4 1.3.6 2.5 1.1 3.3 1.4l2.4.1 1.5.1.1 1.7 7.1 2.4.1-3.9 6.6-.2L759 6l-6.6-.1v-20.7l14.6-.1.1 8.9c1-1.9 5.4-5 7.2-7.5v-94.2h-15.2v-.1H702v94.2c1.8 2.5 6.2 5.6 7.2 7.5l.1-8.9 14.6.1.1 20.1c1 1.1 4.9 3.4 8.9 5.5zm2.7-25.5h9.9v1.4l-.2 19c-.3.1-.5.3-.9.4H743c-1.2 0-3 .2-4.8.3-1.8-.1-3.6-.3-4.8-.3v.2c-1-.1-1.8-.3-2.4-.7l-.1-20.4 4.7.1zm9-85c.5.5.7-.1.8.7l-.2 19.7c-.3.2-.4.3-.6.4h-10.8c-2 0-1.7.4-2.9-.5l-.1-15.5c-.1-6 0-4 .8-4.8h13zm12.6 0h9.8l.1 19-.3 1.9-14.2-.1h-.2v-20.8h4.8zm0 27.8h9.8v19l-.3 1.9-13.9-.1h-.5V-72h4.9zm.1 28.2h9.7v20.9h-8l-6.6-.1v-20.7l4.9-.1zm-12.1 0h-14.1V-23c1.9-.5 4.8-.5 7.1-.2 2.3-.3 5.2-.4 7.1.2v-20.8zm-14.3-7.8h14.3v.1h.1l.2-19.5v-.9l-10.9-.1-3.8.1.1 20.3zm-7 7.8h-14.6v20.9h12.6l2-.2v-20.7z"/><path class="st2" d="M646.7-33.4h162.1c2 0 3.6 1.6 3.6 3.6v96.4c0 2-1.6 3.6-3.6 3.6H646.7c-2 0-3.6-1.6-3.6-3.6v-96.4c0-2 1.7-3.6 3.6-3.6"/><path class="st3" d="M653.4-16.2h149.7c1.6 0 2.9 1.3 2.9 2.9v74.4c0 1.6-1.3 2.9-2.9 2.9H653.4c-1.6 0-2.9-1.3-2.9-2.9v-74.4c0-1.6 1.3-2.9 2.9-2.9"/><path class="st4" d="M679.3-1.1c6.5 0 11.8 5.3 11.8 11.8 0 6.5-5.3 11.8-11.8 11.8-6.5 0-11.8-5.3-11.8-11.8.1-6.5 5.3-11.8 11.8-11.8M661.2 48.9h36.2V37.7c0-6.2-5-11.2-11.2-11.2h-13.8c-6.2 0-11.2 5-11.2 11.2v11.2z"/><path class="st5" d="M714.9-4.8h77.5c1.6 0 3 1.3 3 3 0 1.6-1.3 3-3 3h-77.5c-1.6 0-3-1.3-3-3 .1-1.6 1.4-3 3-3M714.9 11.2h38.8c1.6 0 3 1.3 3 3 0 1.6-1.3 3-3 3h-38.8c-1.6 0-3-1.3-3-3 .1-1.7 1.4-3 3-3M714.9 27.1h77.5c1.6 0 3 1.3 3 3 0 1.6-1.3 3-3 3h-77.5c-1.6 0-3-1.3-3-3 .1-1.6 1.4-3 3-3M714.9 43.1h65c1.6 0 3 1.3 3 3 0 1.6-1.3 3-3 3h-65c-1.6 0-3-1.3-3-3 .1-1.7 1.4-3 3-3"/><path class="st6" d="M709.9-28.8h38.7v8.5h-38.7z"/><path class="st7" d="M722.1-41.9h14.4v18.4h-14.4z"/><path class="st6" d="M775.9-86.9h20.4c3.7-.1 5.5-1.9 6.2-5.2l-.2-2.6c-.5-.9-1-1.7-1.3-2.3-1.1-.8-2-1.5-4-1.7-1.2-2.9-3.4-4.4-7.2-3.3l-1.4-1.4-.3-.1-.2-.2c-6.5-4.2-13.5-.2-14.5 6.5-.3.3 0 .1-.6.3-.9.4-1.7.4-2.8 1.9-.8 1.2-1.2 2.6-.8 4.2.7 3.9 4.1 4 6.7 3.9M650-60.9h35.2c6.4-.2 9.5-3.3 10.7-9l-.4-4.5c-.8-1.5-1.7-2.9-2.3-4-1.9-1.4-3.4-2.6-6.8-2.9-2-4.9-5.9-7.5-12.5-5.7l-2.4-2.5-.5-.2-.3-.3c-11.3-7.2-23.3-.4-25.1 11.3-.5.4 0 .2-1 .6-1.6.7-3 .6-4.9 3.3-1.5 2-2.1 4.5-1.5 7.3 1.5 6.5 7.3 6.7 11.8 6.6"/><g><path class="st8" d="M73 136c.6.5 1.2.8 1.7 1.2.4.3 1.1 1 1.4 1.3 3.5 4 3.9 7.4 3.1 12.6.6.6.5 3.7.3 4.6-.2 1.6-.6 2.9-1.2 4.2-1.1 2.3-3.2 4.6-5.2 5.6-.5 6.1 1.5 10.8-3 14-4.2 2.9-9.7-.4-10.1-4.7-.7-1.3.1-7.3-.3-9.3-2.1-1.5-3.9-3-5.1-5.6-1.1-2.4-1.6-5.1-1.2-7.9.1-.5 0-.9.4-.7-.7-3.9-.9-6.3.8-9.7 1-2 2.8-4 4.7-5.2l.9-.5c-.5-.3-.2.2-.3-.6V75.4c0-2.6-.4-7.7.5-9.7 2.6-5.8 10.3-4.8 12.2.2.8 2.1.5 7.1.5 9.7-.1 20 .1 40.5-.1 60.4zM108.9 8.9h8.1c2.7.1 5.4.3 7.8.7 7.2 1 14.2 2.3 21 4.6.9.3 1.6.6 2.4.8 3.1 1 6 2.4 9 3.7.8.3 1.4.7 2.2 1.1 4.2 2.1 8.4 4.4 12.2 7.1.6.5 1.2.8 1.8 1.3.4.3.6.4.9.7.4.3.6.4 1 .7l4.5 3.5c.4.3.5.4.8.7l3.4 3c.3.3.5.6.8.8 4.1 3.4 8.1 8.3 11.4 12.5l2.7 3.7 6.8 11c1.7 3.1 3.1 6.4 4.6 9.6.7 1.6 1.1 3.1 1.8 4.6.6 1.6 1.1 3.2 1.6 4.8 1.6 5.1 2.7 10.2 3.5 15.8.9 6.3 1 11.7 1 18 0 7.3-1.4 15.6-3.1 22.6-1.3 5.2-2.9 9.7-4.8 14.5l-3 6.6c-.4.8-.7 1.4-1 2.1-.8 1.4-1.5 2.8-2.3 4.1-.8 1.3-1.6 2.7-2.4 4-2.2 3.2-4.3 6.3-6.8 9.4L184 192.4c-1 1.1-2.3 2-3.4 3-4.6 4.1-9.8 7.5-15.1 10.6-5.2 3.1-8.8 4.5-14 6.8l-3.5 1.3c-6.7 2.5-13.5 4-20.6 5.1-3.4.5-7.3.9-11.1 1h-8.1c-2.7-.1-5.4-.3-7.8-.7-8.1-1.1-15.9-2.7-23.4-5.4l-3.6-1.4c-.2-.1-.3-.1-.5-.2l-2.7-1.2c-3.6-1.6-7.3-3.4-10.6-5.4-3.3-2-6.6-4.1-9.7-6.4l-5.3-4.2c-.4-.3-.5-.4-.9-.8-.4-.3-.5-.4-.9-.7l-3.3-3c-2.6-2.3-4.7-5-7.1-7.5-.3-.3-.3-.5-.7-.8-3.9-4.2-9-12.2-11.8-17.1-.2-.4-.4-.7-.6-1.1-.9-1.6-1.9-3.5-2.6-5.2-2.5-6-3.3-7.5-5.3-14-.5-1.6-.9-3.2-1.4-5-2.7-11-3.1-17.7-3.1-28.7 0-8.8 1.9-19.4 4.5-27.6 2.2-6.9 2.7-7.5 5.3-13.9 1.6-3.9 5.6-10.8 8.1-14.4l5.5-7.4c1.1-1.5 2.7-3 3.7-4.3l1.5-1.6c2.6-3.1 5.8-5.9 9-8.5 1.8-1.4 3.6-3 5.4-4.3s3.7-2.7 5.7-3.9c7.9-4.8 7.9-4.8 16.8-8.8C79.6 13.5 90 11 97.7 9.9c3.5-.5 7.3-.9 11.2-1zm56.3 107.4c.4.4 1.1.8 1.6 1.2 4.3 3.7 5.7 8.2 4.3 14 .9.2.4 4.7.3 5.6-.4 1.7-1 3.1-1.8 4.4-2.9 4.6-4.1 2.5-4.1 5.3v15.7c0 1.9.3 11.3-.2 12.3-.2 3.1-3.6 6.3-7.5 5.7-2-.3-3.4-1.4-4.2-2.5-1.3-1.7-1.4-2.8-1.4-5.3v-13.4c0-4.3.2-9.1 0-13.3-1.7-.5-4.5-3.6-5.5-5.6-1.2-2.4-2.2-7.6-1-9-1.1-5.1-.1-9.3 3.3-12.8.5-.5 1-.9 1.5-1.3.8-.6 1.3-.7 1.7-1.2-.3-.8-.1-39.2-.1-45.6 0-2.7 0-4.5 1.5-6.1 1-1.2 2.7-2.5 5.2-2.5s4.3 1.4 5.2 2.6c1.4 2 1.3 3.5 1.3 6.4v45.2c-.1.3.2-.1-.1.2zm-46.1-36.5c.4.5 1.2.9 1.6 1.2.5.3 1.2 1 1.5 1.4 3 3.3 4.6 8.3 3 12.7l.5 2.3c.3 4.9-2.3 9.7-6.5 12-.1 6.4.3 64.4-.1 65.1 0 1.7-1.2 3.6-2 4.3-4.6 4.1-11 .4-11-4.3-.4-.6 0-58.8-.1-65.1-4.2-2.3-6.8-7.3-6.5-12.2l.2-1.7c.1-.3.1-.2.3-.4-1.7-5 .7-11.5 4.6-14.1.5-.3 1.2-.7 1.6-1.1-.3-.4-.2-10.9-.1-12.2.3-3.2 3.1-5.9 6.5-5.9s6.3 2.7 6.6 5.9c.1 1.2.1 11.7-.1 12.1z"/><path class="st9" d="M106.1 174.5c0 4.7 6.4 8.3 11 4.3.8-.7 2-2.6 2-4.3-.2-5.8 0-12 0-17.9l.1-51.5v-1.2c0-1-.1-.9-.3-.9-4.6 2.2-8.2 2.2-12.8 0-.3.2-.3.3-.3 1.1l.1 52.6c.2 5.8.3 11.9.2 17.8zM60.1 135.9c1.7-1 4.2-1.6 6.5-1.6 3 .1 4.1.8 6.4 1.7.2-19.9 0-40.5 0-60.5 0-2.5.3-7.6-.5-9.7-1.9-5-9.6-6-12.2-.2-.9 2-.5 7.1-.5 9.7v59.9c.1.9-.1.4.3.7zM152.3 115.9c.6-.1 1.5-.7 3-1 4.2-1 6.6 0 9.9 1.4.3-.3 0 .1.2-.3V70.8c0-2.9.1-4.4-1.3-6.4-.9-1.2-2.7-2.6-5.2-2.6s-4.2 1.3-5.2 2.5c-1.5 1.7-1.5 3.5-1.5 6.1 0 6.3-.2 44.8.1 45.5z"/><path class="st10" d="M106.1 79.8c-.4.5-1.1.8-1.6 1.1-3.9 2.6-6.3 9.1-4.6 14.1.9 3.7 3.7 6.4 6.3 7.9 4.6 2.2 8.2 2.2 12.8 0 2.6-1.5 5.4-4.3 6.3-7.9 1.5-4.4-.1-9.4-3-12.7-.3-.4-1-1-1.5-1.4-.5-.3-1.2-.7-1.6-1.2-2.3-.7-3-1.6-6.5-1.6-3.5.1-4.3.9-6.6 1.7zM152.3 115.9c-.3.4-.9.6-1.7 1.2-.5.4-1 .9-1.5 1.3-3.5 3.6-4.5 7.8-3.3 12.8.3 1 .7 1.8 1.1 2.6.5.9.9 1.5 1.5 2.2 1 1.4 2.4 2.2 4.1 3.3 2.3.9 3.6 1.6 6.5 1.5 2-.1 4.8-.8 6.2-1.8 2.7-1.6 4.9-3.9 6-7.6 1.4-5.8-.1-10.3-4.3-14-.5-.4-1.2-.8-1.6-1.2-3.3-1.4-5.7-2.4-9.9-1.4-1.7.5-2.6 1-3.1 1.1zM60.1 135.9l-.9.5c-1.9 1.2-3.7 3.2-4.7 5.2-1.7 3.4-1.5 5.8-.8 9.7 1.4 3.8 3.3 6.1 6.4 7.7 1.8 1 4.1 1.7 6.5 1.6 2.8-.1 4.2-.8 6.4-1.7.4-.3.7-.4 1.1-.7.4-.3.7-.5 1-.8 2.8-2.3 3-4.1 4.1-6.3.9-5.2.4-8.6-3.1-12.6-.3-.4-1-1-1.4-1.3-.5-.4-1.1-.7-1.7-1.2-2.3-.9-3.3-1.6-6.4-1.7-2.3 0-4.8.6-6.5 1.6z"/><path class="st9" d="M152.4 139.4c-.4.5-.2 5.9-.2 6.5.2 4.2 0 9 0 13.3v13.4c0 2.5.1 3.6 1.4 5.3.8 1.1 2.2 2.2 4.2 2.5 3.9.6 7.3-2.6 7.5-5.7.3-8.1.1-18.4 0-26.9l.1-7.8c0-1.1-.2-.9-.4-1-1.3 1-4.2 1.8-6.2 1.8-2.8.2-4.1-.5-6.4-1.4zM60.1 159c-.5.4-.2-.1-.4.5v3.5c0 1.3.1 2.6.1 3.9 0 2.6 0 5.2.1 7.8.4 4.3 5.9 7.6 10.1 4.7 4.6-3.1 2.6-7.9 3-14v-6.5c-2.2 1-3.5 1.7-6.4 1.7-2.4.1-4.7-.5-6.5-1.6zM106.1 79.8c2.3-.8 3.1-1.6 6.5-1.6 3.5 0 4.2.9 6.5 1.6.3-.4.2-10.9.1-12.2-.3-3.2-3.1-5.9-6.6-5.9s-6.2 2.7-6.5 5.9c-.2 1.3-.2 11.8 0 12.2z"/><path class="st11" d="M119 102.9c.1.1.3-.1.3.9v1.2l-.1 51.5c0 5.9-.2 12 0 17.9.5-.7 0-58.7.1-65.1 4.2-2.4 6.7-7.1 6.5-12l-.5-2.3c-.9 3.7-3.7 6.4-6.3 7.9zM106.1 174.5c.2-5.8 0-12 0-17.9L106 104c0-.8 0-.9.3-1.1-2.6-1.5-5.4-4.3-6.3-7.9-.2.2-.1.1-.3.4l-.2 1.7c-.3 4.8 2.3 9.9 6.5 12.2 0 6.4-.3 64.6.1 65.2zM152.2 145.9c0-.6-.2-5.9.2-6.5-1.7-1.1-3-1.8-4.1-3.3-.5-.8-1-1.3-1.5-2.2-.4-.8-.8-1.7-1.1-2.6-1.2 1.4-.2 6.6 1 9 1 1.9 3.8 5 5.5 5.6zM165.1 139.1c.2.1.4-.1.4 1l-.1 7.8c0 8.5.3 18.9 0 26.9.5-1 .2-10.3.2-12.3v-15.7c0-2.8 1.1-.7 4.1-5.3.8-1.3 1.4-2.7 1.8-4.4.2-.9.6-5.4-.3-5.6-1.2 3.6-3.4 6-6.1 7.6zM59.9 174.8c-.1-2.6-.1-5.2-.1-7.8 0-1.3-.1-2.6-.1-3.9v-3.5c.2-.6-.1-.1.4-.5-3-1.6-5-3.9-6.4-7.7-.4-.2-.3.2-.4.7-.4 2.7.1 5.4 1.2 7.9 1.2 2.6 3 4 5.1 5.6.4 1.9-.4 7.8.3 9.2zM73 159v6.5c2.1-1 4.1-3.3 5.2-5.6.6-1.2 1-2.6 1.2-4.2.1-.9.2-4.1-.3-4.6-1.1 2.3-1.3 4.1-4.1 6.3-.3.3-.6.5-1 .8-.4.4-.6.5-1 .8z"/></g></svg>