<svg id="Layer_1" xmlns="http://www.w3.org/2000/svg" viewBox="0 0 53 59.2"><style>.st0{fill-rule:evenodd;clip-rule:evenodd;fill:#4387e8}</style><path class="st0" d="M43.3 49.4H49L43.3 55v-5.6zM20.1 25.1c0-6.4 5.2-11.6 11.6-11.6s11.6 5.2 11.6 11.6-5.2 11.6-11.6 11.6-11.6-5.2-11.6-11.6zM12.6 50l9.2-9.2c.4-.6.4-1.2 0-1.8l-1.2-1 2.4-2.2c2.4 2 5.4 3.2 8.8 3.2 7.8 0 13.9-6.2 13.9-13.9s-6.2-13.9-13.9-13.9c-7.6 0-13.9 6.2-13.9 13.9 0 3.4 1.4 6.6 3.4 9L19 36.5l-1-1c-.2-.2-.6-.4-.8-.4-.4 0-.6.2-1 .4L12.6 39V2.4h38V47H42c-.2 0-.6.2-.8.4-.2.2-.4.4-.4.8v8.6H12.6V50zM8 51.2c-.6.6-1.6.6-2.2 0-.6-.6-.6-1.4 0-2l11.4-11.4 2 2.2L8 51.2zM51.8 0H11.4c-.6 0-1.2.6-1.2 1.2v40.2l-6 6c-.8.8-1.2 1.8-1.2 2.8 0 1 .4 2 1.2 2.8.6.6 1.6 1 2.6 1s2-.4 2.8-1l.6-.8V58c0 .6.6 1.2 1.2 1.2h30.7c.4 0 .6-.2.8-.4l9.8-9.8c.2-.2.4-.4.4-.8v-47C53 .6 52.4 0 51.8 0z"/><path id="XMLID_4_" class="st0" d="M25.3 26.3h13.1c.6 0 1.2-.4 1.2-1.2 0-.6-.6-1.2-1.2-1.2H25.3c-.8 0-1.2.6-1.2 1.2 0 .8.4 1.2 1.2 1.2z"/><path id="XMLID_3_" class="st0" d="M39.7 29.7c0-.6-.6-1.2-1.2-1.2H25.3c-.8 0-1.2.6-1.2 1.2 0 .8.4 1.2 1.2 1.2h13.1c.7 0 1.3-.4 1.3-1.2z"/><path id="XMLID_2_" class="st0" d="M25.3 21.7h5.2c.6 0 1.2-.6 1.2-1.2 0-.8-.6-1.2-1.2-1.2h-5.2c-.8 0-1.2.4-1.2 1.2 0 .6.4 1.2 1.2 1.2z"/><path id="XMLID_1_" class="st0" d="M34.1 21.7h.6c.8 0 1.2-.6 1.2-1.2 0-.8-.4-1.2-1.2-1.2h-.6c-.6 0-1.2.4-1.2 1.2 0 .6.6 1.2 1.2 1.2z"/></svg>