<svg id="Layer_1" xmlns="http://www.w3.org/2000/svg" viewBox="0 0 150 150"><style>.st0{fill:#d3d4d5}.st1{fill:#5485ba}.st2{fill:#faa71a}.st3{fill:#75c044}</style><g id="XMLID_41_"><path id="XMLID_46_" class="st0" d="M129.2 111H15c-4.1 0-7.5 3.4-7.5 7.5s3.4 7.5 7.5 7.5h114.3c4.1 0 7.5-3.4 7.5-7.5-.1-4.1-3.4-7.5-7.6-7.5z"/><path id="XMLID_45_" class="st1" d="M55.7 111.3V92.5c0-2.6-2.1-4.7-4.7-4.7H27.6c-2.6 0-4.7 2.1-4.7 4.7v18.7h32.8z"/><path id="XMLID_44_" class="st2" d="M88.5 111.3v-49c0-2.6-2.1-4.7-4.7-4.7H60.4c-2.6 0-4.7 2.1-4.7 4.7v49h32.8z"/><path id="XMLID_43_" class="st3" d="M121.3 111.3V28.2c0-2.6-2.1-4.7-4.7-4.7H93.2c-2.6 0-4.7 2.1-4.7 4.7v83.1h32.8z"/></g></svg>