<svg id="Layer_1" xmlns="http://www.w3.org/2000/svg" viewBox="0 0 150 150"><style>.st0{fill:none}.st1{fill:#7393cc}.st2{fill:#e7e7e7}.st3{fill:#4f77ba}.st4{fill:#fdd0aa}</style><path id="XMLID_42_" class="st0" d="M0 .2h150v150H0z"/><g id="XMLID_40_"><path id="XMLID_60_" class="st1" d="M72.1 94.9h67.8V81.6c0-12.5-9.9-22.3-22.3-22.3H94.4c-12 0-22.3 9.9-22.3 22.3v13.3z"/><path id="XMLID_59_" class="st2" d="M106.1 63.1c11.1 0 19.8-8.8 19.8-19.8s-8.8-19.8-19.8-19.8-19.8 8.8-19.8 19.8 8.7 19.8 19.8 19.8z"/><path id="XMLID_58_" class="st1" d="M10 94.9h67.8V81.6c0-12.5-9.9-22.3-22.3-22.3H32.3c-12 0-22.3 9.9-22.3 22.3v13.3z"/><path id="XMLID_57_" class="st2" d="M43.9 63.1c11.1 0 19.8-8.8 19.8-19.8s-8.8-19.8-19.8-19.8S24 32.3 24 43.3s8.9 19.8 19.9 19.8z"/><path id="XMLID_56_" class="st3" d="M32.5 127h84.9v-16.9c0-15.6-12.5-28-28-28H60.5c-15.6 0-28 12.5-28 28V127z"/><path id="XMLID_55_" class="st4" d="M75.2 89.5c13.5 0 25.1-11.6 25.1-25.5 0-13.5-11.6-25.1-25.1-25.1-13.9 0-25.5 11.6-25.5 25.1 0 14 11.5 25.5 25.5 25.5z"/></g></svg>