<svg xmlns="http://www.w3.org/2000/svg" id="Layer_1" viewBox="0 0 168 167.7"><style>.st0{fill:#ffc380}.st1{fill:#ffcf99}.st2{fill:#44a4ec}.st3{fill:#73c3ff}</style><path class="st0" d="M113.3 84.6h-43c-2.2 0-4.2-1.5-4.8-3.7-.6-2.2.3-4.5 2.3-5.6 18.7-11.1 28.5-24 29.8-39.5.4-5.4 5.2-9.7 10.7-9.6 5.6.1 10.8 2.3 14.6 6.3 3.9 4 6 9.2 6 14.8V49c0 13.6-4 22.2-11.4 33.5-1 1.2-2.6 2.1-4.2 2.1z"/><path class="st1" d="M166 90.2c0-8.6-7-15.6-15.6-15.6H70.2c-.9 0-1.8.2-2.5.7-5.6 3.3-11.3 6.1-15.9 8.3-1.6.8-3.1 1.5-4.5 2.2-1.7.8-2.8 2.6-2.8 4.5v63.6c0 1.9 1.1 3.6 2.8 4.5 20.1 10 36.8 11.3 56.3 11.3 3 0 6.1 0 9.3-.1 3.5 0 7.1-.1 10.9-.1h15.7c8.6 0 15.6-7 15.6-15.6 0-2.9-.8-5.6-2.2-7.9 4.5-2.7 7.5-7.7 7.5-13.3 0-2.9-.8-5.6-2.2-7.9 4.5-2.7 7.5-7.7 7.5-13.3 0-4-1.5-7.7-4.1-10.5 2.9-3 4.4-6.8 4.4-10.8z"/><path class="st2" d="M49.5 74.6H7c-2.7 0-5 2.2-5 5v84.9c0 2.7 2.2 5 5 5h31.8c6.1-.1 11.4-3.6 13.9-8.7 1.1-2.1 1.6-4.5 1.6-7V79.5c.2-2.7-2-4.9-4.8-4.9z"/><path class="st3" d="M33.3 143v26.5h-10V143c0-2.7 2.2-5 5-5 2.7 0 5 2.2 5 5z"/></svg>