<svg id="Layer_1" xmlns="http://www.w3.org/2000/svg" viewBox="0 0 150.1 150"><style>.st0{fill:#c4c6c6}</style><path class="st0" d="M74.7 141.4C37.9 141.4 8 111.5 8 74.7 8 37.8 37.9 8 74.7 8s66.7 29.9 66.7 66.7c0 36.7-29.7 66.7-66.7 66.7zm26.5-61.7c-6.6 7.1-16 11.7-26.4 11.7s-19.9-4.5-26.4-11.7C35.6 81.4 30 93.8 28 107.7c10.4 14.6 27.4 24.2 46.7 24.2s36.3-9.6 46.7-24.2c-1.9-13.9-7.6-26.3-20.2-28zM74.7 27.1c-15.8 0-28.6 12.8-28.6 28.6s12.8 28.6 28.6 28.6 28.6-12.8 28.6-28.6-12.8-28.6-28.6-28.6z"/></svg>